<svg id="Layer_1" data-name="Layer 1" xmlns="http://www.w3.org/2000/svg" viewBox="0 0 500 373.67"><defs><style>.cls-1{fill:#ececec;}.cls-2,.cls-7{fill:#e1e1e1;}.cls-3{fill:#f5f5f5;}.cls-4{fill:#e7e7e7;}.cls-5,.cls-6{fill:#f0f0f0;}.cls-6{stroke:#e1e1e1;stroke-width:2px;}.cls-19,.cls-20,.cls-25,.cls-26,.cls-6{stroke-linecap:round;stroke-linejoin:round;}.cls-11,.cls-22,.cls-7,.cls-9{opacity:0.2;}.cls-10,.cls-11,.cls-13,.cls-14,.cls-16,.cls-21,.cls-22,.cls-23,.cls-24,.cls-27,.cls-7,.cls-9{isolation:isolate;}.cls-8{fill:#007cff;}.cls-10,.cls-11,.cls-13,.cls-14,.cls-17,.cls-23,.cls-24,.cls-27{fill:#fff;}.cls-10{opacity:0.5;}.cls-12{fill:#1a2e35;}.cls-13{opacity:0.3;}.cls-14{opacity:0.6;}.cls-15{fill:#fd897b;}.cls-16,.cls-27{opacity:0.1;}.cls-18{fill:#fd5652;}.cls-19,.cls-20,.cls-25,.cls-26{fill:none;}.cls-19,.cls-20{stroke:#1a2e35;}.cls-19{stroke-width:0.72px;}.cls-20{stroke-width:0.5px;}.cls-21,.cls-24{opacity:0.4;}.cls-23{opacity:0.7;}.cls-25,.cls-26{stroke:#007cff;stroke-width:0.75px;}.cls-26{stroke-dasharray:6.04 6.04;}</style></defs><title>contact</title><rect class="cls-1" y="328.38" width="500" height="0.25"/><rect class="cls-1" x="416.78" y="344.52" width="33.12" height="0.25"/><rect class="cls-1" x="322.53" y="347.25" width="8.69" height="0.25"/><rect class="cls-1" x="396.59" y="335.21" width="19.19" height="0.25"/><rect class="cls-1" x="52.46" y="336.9" width="43.19" height="0.25"/><rect class="cls-1" x="104.56" y="336.9" width="6.33" height="0.25"/><rect class="cls-1" x="131.47" y="341.13" width="93.68" height="0.25"/><path class="cls-1" d="M237,339.93H43.91a5.72,5.72,0,0,1-5.7-5.72V62a5.71,5.71,0,0,1,5.7-5.72H237A5.72,5.72,0,0,1,242.72,62V334.21A5.72,5.72,0,0,1,237,339.93ZM43.91,56.53A5.47,5.47,0,0,0,38.46,62V334.21a5.47,5.47,0,0,0,5.45,5.47H237a5.47,5.47,0,0,0,5.46-5.47V62A5.47,5.47,0,0,0,237,56.53Z" transform="translate(0 -56.28)"/><path class="cls-1" d="M453.31,339.93H260.21a5.73,5.73,0,0,1-5.71-5.72V62a5.72,5.72,0,0,1,5.71-5.72h193.1A5.72,5.72,0,0,1,459,62V334.21A5.72,5.72,0,0,1,453.31,339.93ZM260.21,56.53A5.47,5.47,0,0,0,254.75,62V334.21a5.47,5.47,0,0,0,5.46,5.47h193.1a5.47,5.47,0,0,0,5.46-5.47V62a5.47,5.47,0,0,0-5.46-5.47Z" transform="translate(0 -56.28)"/><rect class="cls-2" x="203.14" y="62.4" width="242.28" height="234.21"/><rect class="cls-3" x="207.03" y="66.65" width="238.39" height="225.87"/><polygon class="cls-4" points="208.79 237.82 208.79 169.88 215.82 169.88 215.82 160.91 231.66 153.48 231.66 144.3 234.3 144.3 234.3 169.88 236.94 169.88 236.94 237.82 240.46 237.82 240.46 202.53 248.38 202.53 248.38 184 251.02 184 251.02 237.82 257.17 237.82 257.17 217.53 261.57 217.53 261.57 212.23 271.25 212.23 271.25 193.71 276.53 193.71 276.53 181.35 282.69 181.35 282.69 162.82 285.33 162.82 285.33 181.35 291.49 181.35 291.49 193.71 296.76 193.71 296.76 212.23 306.44 212.23 306.44 217.53 310.84 217.53 310.84 237.82 316.12 237.82 316.12 212.23 325.8 212.23 325.8 155.77 328.44 155.77 328.44 149.59 349.55 149.59 349.55 155.77 353.95 155.77 353.95 196.35 371.55 196.35 371.55 200.76 377.7 200.76 377.7 203.41 371.55 203.41 371.55 219.29 390.02 219.29 390.02 166.35 393.54 166.35 393.54 155.77 402.34 155.77 402.34 115.18 404.98 115.18 404.98 155.77 411.14 155.77 411.14 166.35 445.42 166.35 445.42 292.52 207.03 292.52 207.03 237.82 208.79 237.82"/><rect class="cls-5" x="424.61" y="169.12" width="2.49" height="2.5"/><rect class="cls-5" x="424.61" y="173.31" width="2.49" height="2.5"/><rect class="cls-5" x="424.61" y="190.08" width="2.49" height="2.5"/><rect class="cls-5" x="424.61" y="194.27" width="2.49" height="2.5"/><rect class="cls-5" x="424.61" y="198.46" width="2.49" height="2.5"/><rect class="cls-5" x="424.61" y="211.03" width="2.49" height="2.5"/><rect class="cls-5" x="424.61" y="215.22" width="2.49" height="2.5"/><rect class="cls-5" x="420.65" y="185.88" width="2.49" height="2.5"/><rect class="cls-5" x="420.65" y="190.08" width="2.49" height="2.5"/><rect class="cls-5" x="420.65" y="194.27" width="2.49" height="2.5"/><rect class="cls-5" x="420.65" y="198.46" width="2.49" height="2.5"/><rect class="cls-5" x="420.65" y="202.65" width="2.49" height="2.5"/><rect class="cls-5" x="420.65" y="211.03" width="2.49" height="2.5"/><rect class="cls-5" x="420.65" y="215.22" width="2.49" height="2.5"/><rect class="cls-5" x="416.69" y="169.12" width="2.49" height="2.5"/><rect class="cls-5" x="416.69" y="173.31" width="2.49" height="2.5"/><rect class="cls-5" x="416.69" y="177.5" width="2.49" height="2.5"/><rect class="cls-5" x="416.69" y="181.69" width="2.49" height="2.5"/><rect class="cls-5" x="416.69" y="185.88" width="2.49" height="2.5"/><rect class="cls-5" x="416.69" y="190.08" width="2.49" height="2.5"/><rect class="cls-5" x="416.69" y="194.27" width="2.49" height="2.5"/><rect class="cls-5" x="416.69" y="198.46" width="2.49" height="2.5"/><rect class="cls-5" x="416.69" y="202.65" width="2.49" height="2.5"/><rect class="cls-5" x="416.69" y="206.84" width="2.49" height="2.5"/><rect class="cls-5" x="416.69" y="215.22" width="2.49" height="2.5"/><rect class="cls-5" x="412.73" y="169.12" width="2.49" height="2.5"/><rect class="cls-5" x="412.73" y="173.31" width="2.49" height="2.5"/><rect class="cls-5" x="412.73" y="177.5" width="2.49" height="2.5"/><rect class="cls-5" x="412.73" y="181.69" width="2.49" height="2.5"/><rect class="cls-5" x="412.73" y="185.88" width="2.49" height="2.5"/><rect class="cls-5" x="412.73" y="190.08" width="2.49" height="2.5"/><rect class="cls-5" x="412.73" y="194.27" width="2.49" height="2.5"/><rect class="cls-5" x="412.73" y="231.98" width="2.49" height="2.5"/><rect class="cls-5" x="408.77" y="169.12" width="2.49" height="2.5"/><rect class="cls-5" x="408.77" y="173.31" width="2.49" height="2.5"/><rect class="cls-5" x="408.77" y="177.5" width="2.49" height="2.5"/><rect class="cls-5" x="408.77" y="181.69" width="2.49" height="2.5"/><rect class="cls-5" x="408.77" y="185.88" width="2.49" height="2.5"/><rect class="cls-5" x="408.77" y="190.08" width="2.49" height="2.5"/><rect class="cls-5" x="408.77" y="194.27" width="2.49" height="2.5"/><rect class="cls-5" x="408.77" y="198.46" width="2.49" height="2.5"/><rect class="cls-5" x="408.77" y="223.6" width="2.49" height="2.5"/><rect class="cls-5" x="408.77" y="227.79" width="2.49" height="2.5"/><rect class="cls-5" x="408.77" y="231.98" width="2.49" height="2.5"/><rect class="cls-5" x="408.77" y="236.18" width="2.49" height="2.5"/><rect class="cls-5" x="408.77" y="252.94" width="2.49" height="2.5"/><rect class="cls-5" x="404.81" y="169.12" width="2.49" height="2.5"/><rect class="cls-5" x="404.81" y="173.31" width="2.49" height="2.5"/><rect class="cls-5" x="404.81" y="177.5" width="2.49" height="2.5"/><rect class="cls-5" x="404.81" y="181.69" width="2.49" height="2.5"/><rect class="cls-5" x="404.81" y="185.88" width="2.49" height="2.5"/><rect class="cls-5" x="404.81" y="190.08" width="2.49" height="2.5"/><rect class="cls-5" x="404.81" y="194.27" width="2.49" height="2.5"/><rect class="cls-5" x="404.81" y="198.46" width="2.49" height="2.5"/><rect class="cls-5" x="404.81" y="202.65" width="2.49" height="2.5"/><rect class="cls-5" x="404.81" y="206.84" width="2.49" height="2.5"/><rect class="cls-5" x="404.81" y="219.41" width="2.49" height="2.5"/><rect class="cls-5" x="404.81" y="223.6" width="2.49" height="2.5"/><rect class="cls-5" x="404.81" y="227.79" width="2.49" height="2.5"/><rect class="cls-5" x="404.81" y="231.98" width="2.49" height="2.5"/><rect class="cls-5" x="404.81" y="236.18" width="2.49" height="2.5"/><rect class="cls-5" x="404.81" y="252.94" width="2.49" height="2.5"/><rect class="cls-5" x="400.85" y="169.12" width="2.49" height="2.5"/><rect class="cls-5" x="400.85" y="173.31" width="2.49" height="2.5"/><rect class="cls-5" x="400.85" y="177.5" width="2.49" height="2.5"/><rect class="cls-5" x="400.85" y="181.69" width="2.49" height="2.5"/><rect class="cls-5" x="400.85" y="185.88" width="2.49" height="2.5"/><rect class="cls-5" x="400.85" y="190.08" width="2.49" height="2.5"/><rect class="cls-5" x="400.85" y="194.27" width="2.49" height="2.5"/><rect class="cls-5" x="400.85" y="198.46" width="2.49" height="2.5"/><rect class="cls-5" x="400.85" y="202.65" width="2.49" height="2.5"/><rect class="cls-5" x="400.85" y="206.84" width="2.49" height="2.5"/><rect class="cls-5" x="400.85" y="211.03" width="2.49" height="2.5"/><rect class="cls-5" x="400.85" y="215.22" width="2.49" height="2.5"/><rect class="cls-5" x="400.85" y="219.41" width="2.49" height="2.5"/><rect class="cls-5" x="400.85" y="223.6" width="2.49" height="2.5"/><rect class="cls-5" x="400.85" y="227.79" width="2.49" height="2.5"/><rect class="cls-5" x="400.85" y="231.98" width="2.49" height="2.5"/><rect class="cls-5" x="400.85" y="236.18" width="2.49" height="2.5"/><rect class="cls-5" x="400.85" y="240.37" width="2.49" height="2.5"/><rect class="cls-5" x="396.89" y="169.12" width="2.49" height="2.5"/><rect class="cls-5" x="396.89" y="173.31" width="2.49" height="2.5"/><rect class="cls-5" x="396.89" y="177.5" width="2.49" height="2.5"/><rect class="cls-5" x="396.89" y="181.69" width="2.49" height="2.5"/><rect class="cls-5" x="396.89" y="185.88" width="2.49" height="2.5"/><rect class="cls-5" x="396.89" y="190.08" width="2.49" height="2.5"/><rect class="cls-5" x="396.89" y="194.27" width="2.49" height="2.5"/><rect class="cls-5" x="396.89" y="198.46" width="2.49" height="2.5"/><rect class="cls-5" x="396.89" y="202.65" width="2.49" height="2.5"/><rect class="cls-5" x="396.89" y="206.84" width="2.49" height="2.5"/><rect class="cls-5" x="396.89" y="219.41" width="2.49" height="2.5"/><rect class="cls-5" x="396.89" y="223.6" width="2.49" height="2.5"/><rect class="cls-5" x="396.89" y="227.79" width="2.49" height="2.5"/><rect class="cls-5" x="396.89" y="231.98" width="2.49" height="2.5"/><rect class="cls-5" x="392.94" y="169.12" width="2.49" height="2.5"/><rect class="cls-5" x="392.94" y="173.31" width="2.49" height="2.5"/><rect class="cls-5" x="392.94" y="177.5" width="2.49" height="2.5"/><rect class="cls-5" x="392.94" y="181.69" width="2.49" height="2.5"/><rect class="cls-5" x="392.94" y="185.88" width="2.49" height="2.5"/><rect class="cls-5" x="392.94" y="190.08" width="2.49" height="2.5"/><rect class="cls-5" x="392.94" y="194.27" width="2.49" height="2.5"/><rect class="cls-5" x="392.94" y="198.46" width="2.49" height="2.5"/><rect class="cls-5" x="392.94" y="202.65" width="2.49" height="2.5"/><rect class="cls-5" x="392.94" y="206.84" width="2.49" height="2.5"/><rect class="cls-5" x="392.94" y="219.41" width="2.49" height="2.5"/><rect class="cls-5" x="392.94" y="223.6" width="2.49" height="2.5"/><rect class="cls-5" x="392.94" y="227.79" width="2.49" height="2.5"/><rect class="cls-5" x="348.36" y="158.24" width="2.49" height="2.5"/><rect class="cls-5" x="348.36" y="162.43" width="2.49" height="2.5"/><rect class="cls-5" x="348.36" y="166.62" width="2.49" height="2.5"/><rect class="cls-5" x="348.36" y="170.81" width="2.49" height="2.5"/><rect class="cls-5" x="348.36" y="175" width="2.49" height="2.5"/><rect class="cls-5" x="348.36" y="179.19" width="2.49" height="2.5"/><rect class="cls-5" x="348.36" y="183.38" width="2.49" height="2.5"/><rect class="cls-5" x="348.36" y="187.58" width="2.49" height="2.5"/><rect class="cls-5" x="348.36" y="200.15" width="2.49" height="2.5"/><rect class="cls-5" x="348.36" y="204.34" width="2.49" height="2.5"/><rect class="cls-5" x="344.4" y="158.24" width="2.49" height="2.5"/><rect class="cls-5" x="344.4" y="162.43" width="2.49" height="2.5"/><rect class="cls-5" x="344.4" y="166.62" width="2.49" height="2.5"/><rect class="cls-5" x="344.4" y="170.81" width="2.49" height="2.5"/><rect class="cls-5" x="344.4" y="175" width="2.49" height="2.5"/><rect class="cls-5" x="344.4" y="179.19" width="2.49" height="2.5"/><rect class="cls-5" x="344.4" y="183.38" width="2.49" height="2.5"/><rect class="cls-5" x="344.4" y="187.58" width="2.49" height="2.5"/><rect class="cls-5" x="344.4" y="204.34" width="2.49" height="2.5"/><rect class="cls-5" x="340.44" y="158.24" width="2.49" height="2.5"/><rect class="cls-5" x="340.44" y="162.43" width="2.49" height="2.5"/><rect class="cls-5" x="340.44" y="166.62" width="2.49" height="2.5"/><rect class="cls-5" x="340.44" y="170.81" width="2.49" height="2.5"/><rect class="cls-5" x="340.44" y="175" width="2.49" height="2.5"/><rect class="cls-5" x="340.44" y="179.19" width="2.49" height="2.5"/><rect class="cls-5" x="340.44" y="183.38" width="2.49" height="2.5"/><rect class="cls-5" x="340.44" y="187.58" width="2.49" height="2.5"/><rect class="cls-5" x="336.48" y="158.24" width="2.49" height="2.5"/><rect class="cls-5" x="336.48" y="162.43" width="2.49" height="2.5"/><rect class="cls-5" x="336.48" y="166.62" width="2.49" height="2.5"/><rect class="cls-5" x="336.48" y="170.81" width="2.49" height="2.5"/><rect class="cls-5" x="336.48" y="175" width="2.49" height="2.5"/><rect class="cls-5" x="336.48" y="179.19" width="2.49" height="2.5"/><rect class="cls-5" x="336.48" y="187.58" width="2.49" height="2.5"/><rect class="cls-5" x="336.48" y="191.77" width="2.49" height="2.5"/><rect class="cls-5" x="336.48" y="204.34" width="2.49" height="2.5"/><rect class="cls-5" x="336.48" y="208.53" width="2.49" height="2.5"/><rect class="cls-5" x="336.48" y="212.72" width="2.49" height="2.5"/><rect class="cls-5" x="336.48" y="216.91" width="2.49" height="2.5"/><rect class="cls-5" x="336.48" y="221.1" width="2.49" height="2.5"/><rect class="cls-5" x="336.48" y="225.29" width="2.49" height="2.5"/><rect class="cls-5" x="336.48" y="229.48" width="2.49" height="2.5"/><rect class="cls-5" x="332.52" y="158.24" width="2.49" height="2.5"/><rect class="cls-5" x="332.52" y="162.43" width="2.49" height="2.5"/><rect class="cls-5" x="332.52" y="166.62" width="2.49" height="2.5"/><rect class="cls-5" x="332.52" y="170.81" width="2.49" height="2.5"/><rect class="cls-5" x="332.52" y="175" width="2.49" height="2.5"/><rect class="cls-5" x="332.52" y="179.19" width="2.49" height="2.5"/><rect class="cls-5" x="332.52" y="191.77" width="2.49" height="2.5"/><rect class="cls-5" x="332.52" y="195.96" width="2.49" height="2.5"/><rect class="cls-5" x="332.52" y="200.15" width="2.49" height="2.5"/><rect class="cls-5" x="332.52" y="204.34" width="2.49" height="2.5"/><rect class="cls-5" x="332.52" y="208.53" width="2.49" height="2.5"/><rect class="cls-5" x="332.52" y="212.72" width="2.49" height="2.5"/><rect class="cls-5" x="332.52" y="216.91" width="2.49" height="2.5"/><rect class="cls-5" x="332.52" y="221.1" width="2.49" height="2.5"/><rect class="cls-5" x="332.52" y="225.29" width="2.49" height="2.5"/><rect class="cls-5" x="332.52" y="229.48" width="2.49" height="2.5"/><rect class="cls-5" x="332.52" y="233.68" width="2.49" height="2.5"/><rect class="cls-5" x="332.52" y="242.06" width="2.49" height="2.5"/><rect class="cls-5" x="328.56" y="158.24" width="2.49" height="2.5"/><rect class="cls-5" x="328.56" y="162.43" width="2.49" height="2.5"/><rect class="cls-5" x="328.56" y="166.62" width="2.49" height="2.5"/><rect class="cls-5" x="328.56" y="170.81" width="2.49" height="2.5"/><rect class="cls-5" x="328.56" y="175" width="2.49" height="2.5"/><rect class="cls-5" x="328.56" y="179.19" width="2.49" height="2.5"/><rect class="cls-5" x="328.56" y="191.77" width="2.49" height="2.5"/><rect class="cls-5" x="328.56" y="195.96" width="2.49" height="2.5"/><rect class="cls-5" x="328.56" y="200.15" width="2.49" height="2.5"/><rect class="cls-5" x="328.56" y="204.34" width="2.49" height="2.5"/><rect class="cls-5" x="328.56" y="216.91" width="2.49" height="2.5"/><rect class="cls-5" x="328.56" y="221.1" width="2.49" height="2.5"/><rect class="cls-5" x="328.56" y="225.29" width="2.49" height="2.5"/><rect class="cls-5" x="328.56" y="229.48" width="2.49" height="2.5"/><rect class="cls-5" x="328.56" y="233.68" width="2.49" height="2.5"/><rect class="cls-5" x="328.56" y="242.06" width="2.49" height="2.5"/><rect class="cls-5" x="328.56" y="246.25" width="2.49" height="2.5"/><rect class="cls-5" x="292.64" y="197.21" width="2.49" height="2.5"/><rect class="cls-5" x="292.64" y="201.4" width="2.49" height="2.5"/><rect class="cls-5" x="292.64" y="205.59" width="2.49" height="2.5"/><rect class="cls-5" x="292.64" y="209.78" width="2.49" height="2.5"/><rect class="cls-5" x="292.64" y="213.97" width="2.49" height="2.5"/><rect class="cls-5" x="292.64" y="218.16" width="2.49" height="2.5"/><rect class="cls-5" x="292.64" y="222.35" width="2.49" height="2.5"/><rect class="cls-5" x="292.64" y="234.93" width="2.49" height="2.5"/><rect class="cls-5" x="292.64" y="239.12" width="2.49" height="2.5"/><rect class="cls-5" x="292.64" y="243.31" width="2.49" height="2.5"/><rect class="cls-5" x="288.68" y="197.21" width="2.49" height="2.5"/><rect class="cls-5" x="288.68" y="201.4" width="2.49" height="2.5"/><rect class="cls-5" x="288.68" y="205.59" width="2.49" height="2.5"/><rect class="cls-5" x="288.68" y="209.78" width="2.49" height="2.5"/><rect class="cls-5" x="288.68" y="213.97" width="2.49" height="2.5"/><rect class="cls-5" x="288.68" y="218.16" width="2.49" height="2.5"/><rect class="cls-5" x="288.68" y="222.35" width="2.49" height="2.5"/><rect class="cls-5" x="284.72" y="197.21" width="2.49" height="2.5"/><rect class="cls-5" x="284.72" y="201.4" width="2.49" height="2.5"/><rect class="cls-5" x="284.72" y="205.59" width="2.49" height="2.5"/><rect class="cls-5" x="284.72" y="209.78" width="2.49" height="2.5"/><rect class="cls-5" x="284.72" y="213.97" width="2.49" height="2.5"/><rect class="cls-5" x="284.72" y="218.16" width="2.49" height="2.5"/><rect class="cls-5" x="284.72" y="222.35" width="2.49" height="2.5"/><rect class="cls-5" x="280.76" y="197.21" width="2.49" height="2.5"/><rect class="cls-5" x="280.76" y="201.4" width="2.49" height="2.5"/><rect class="cls-5" x="280.76" y="205.59" width="2.49" height="2.5"/><rect class="cls-5" x="280.76" y="209.78" width="2.49" height="2.5"/><rect class="cls-5" x="280.76" y="213.97" width="2.49" height="2.5"/><rect class="cls-5" x="280.76" y="218.16" width="2.49" height="2.5"/><rect class="cls-5" x="280.76" y="222.35" width="2.49" height="2.5"/><rect class="cls-5" x="280.76" y="226.54" width="2.49" height="2.5"/><rect class="cls-5" x="280.76" y="230.73" width="2.49" height="2.5"/><rect class="cls-5" x="280.76" y="234.93" width="2.49" height="2.5"/><rect class="cls-5" x="280.76" y="239.12" width="2.49" height="2.5"/><rect class="cls-5" x="276.8" y="197.21" width="2.49" height="2.5"/><rect class="cls-5" x="276.8" y="201.4" width="2.49" height="2.5"/><rect class="cls-5" x="276.8" y="205.59" width="2.49" height="2.5"/><rect class="cls-5" x="276.8" y="209.78" width="2.49" height="2.5"/><rect class="cls-5" x="276.8" y="213.97" width="2.49" height="2.5"/><rect class="cls-5" x="276.8" y="218.16" width="2.49" height="2.5"/><rect class="cls-5" x="276.8" y="222.35" width="2.49" height="2.5"/><rect class="cls-5" x="276.8" y="226.54" width="2.49" height="2.5"/><rect class="cls-5" x="276.8" y="230.73" width="2.49" height="2.5"/><rect class="cls-5" x="276.8" y="234.93" width="2.49" height="2.5"/><rect class="cls-5" x="276.8" y="239.12" width="2.49" height="2.5"/><rect class="cls-5" x="276.8" y="243.31" width="2.49" height="2.5"/><rect class="cls-5" x="276.8" y="255.88" width="2.49" height="2.5"/><rect class="cls-5" x="276.8" y="260.07" width="2.49" height="2.5"/><rect class="cls-5" x="272.84" y="197.21" width="2.49" height="2.5"/><rect class="cls-5" x="272.84" y="201.4" width="2.49" height="2.5"/><rect class="cls-5" x="272.84" y="205.59" width="2.49" height="2.5"/><rect class="cls-5" x="272.84" y="218.16" width="2.49" height="2.5"/><rect class="cls-5" x="272.84" y="222.35" width="2.49" height="2.5"/><rect class="cls-5" x="272.84" y="226.54" width="2.49" height="2.5"/><rect class="cls-5" x="272.84" y="230.73" width="2.49" height="2.5"/><rect class="cls-5" x="272.84" y="234.93" width="2.49" height="2.5"/><rect class="cls-5" x="272.84" y="239.12" width="2.49" height="2.5"/><rect class="cls-5" x="272.84" y="243.31" width="2.49" height="2.5"/><rect class="cls-5" x="272.84" y="255.88" width="2.49" height="2.5"/><rect class="cls-5" x="272.84" y="260.07" width="2.49" height="2.5"/><rect class="cls-5" x="272.84" y="264.26" width="2.49" height="2.5"/><rect class="cls-5" x="231.35" y="172.06" width="2.49" height="2.5"/><rect class="cls-5" x="231.35" y="176.25" width="2.49" height="2.5"/><rect class="cls-5" x="231.35" y="180.44" width="2.49" height="2.5"/><rect class="cls-5" x="231.35" y="184.63" width="2.49" height="2.5"/><rect class="cls-5" x="231.35" y="188.83" width="2.49" height="2.5"/><rect class="cls-5" x="231.35" y="193.02" width="2.49" height="2.5"/><rect class="cls-5" x="231.35" y="197.21" width="2.49" height="2.5"/><rect class="cls-5" x="231.35" y="201.4" width="2.49" height="2.5"/><rect class="cls-5" x="231.35" y="205.59" width="2.49" height="2.5"/><rect class="cls-5" x="231.35" y="209.78" width="2.49" height="2.5"/><rect class="cls-5" x="231.35" y="213.97" width="2.49" height="2.5"/><rect class="cls-5" x="231.35" y="218.16" width="2.49" height="2.5"/><rect class="cls-5" x="231.35" y="222.35" width="2.49" height="2.5"/><rect class="cls-5" x="231.35" y="226.54" width="2.49" height="2.5"/><rect class="cls-5" x="231.35" y="230.73" width="2.49" height="2.5"/><rect class="cls-5" x="231.35" y="234.93" width="2.49" height="2.5"/><rect class="cls-5" x="231.35" y="239.12" width="2.49" height="2.5"/><rect class="cls-5" x="231.35" y="243.31" width="2.49" height="2.5"/><rect class="cls-5" x="231.35" y="247.5" width="2.49" height="2.5"/><rect class="cls-5" x="231.35" y="251.69" width="2.49" height="2.5"/><rect class="cls-5" x="231.35" y="255.88" width="2.49" height="2.5"/><rect class="cls-5" x="231.35" y="260.07" width="2.49" height="2.5"/><rect class="cls-5" x="231.35" y="264.26" width="2.49" height="2.5"/><rect class="cls-5" x="227.39" y="172.06" width="2.49" height="2.5"/><rect class="cls-5" x="227.39" y="176.25" width="2.49" height="2.5"/><rect class="cls-5" x="227.39" y="180.44" width="2.49" height="2.5"/><rect class="cls-5" x="227.39" y="184.63" width="2.49" height="2.5"/><rect class="cls-5" x="227.39" y="188.83" width="2.49" height="2.5"/><rect class="cls-5" x="227.39" y="193.02" width="2.49" height="2.5"/><rect class="cls-5" x="227.39" y="197.21" width="2.49" height="2.5"/><rect class="cls-5" x="227.39" y="201.4" width="2.49" height="2.5"/><rect class="cls-5" x="227.39" y="205.59" width="2.49" height="2.5"/><rect class="cls-5" x="227.39" y="209.78" width="2.49" height="2.5"/><rect class="cls-5" x="227.39" y="213.97" width="2.49" height="2.5"/><rect class="cls-5" x="227.39" y="218.16" width="2.49" height="2.5"/><rect class="cls-5" x="227.39" y="222.35" width="2.49" height="2.5"/><rect class="cls-5" x="227.39" y="226.54" width="2.49" height="2.5"/><rect class="cls-5" x="227.39" y="230.73" width="2.49" height="2.5"/><rect class="cls-5" x="227.39" y="234.93" width="2.49" height="2.5"/><rect class="cls-5" x="227.39" y="239.12" width="2.49" height="2.5"/><rect class="cls-5" x="227.39" y="243.31" width="2.49" height="2.5"/><rect class="cls-5" x="227.39" y="247.5" width="2.49" height="2.5"/><rect class="cls-5" x="223.43" y="172.06" width="2.49" height="2.5"/><rect class="cls-5" x="223.43" y="176.25" width="2.49" height="2.5"/><rect class="cls-5" x="223.43" y="180.44" width="2.49" height="2.5"/><rect class="cls-5" x="223.43" y="184.63" width="2.49" height="2.5"/><rect class="cls-5" x="223.43" y="188.83" width="2.49" height="2.5"/><rect class="cls-5" x="223.43" y="193.02" width="2.49" height="2.5"/><rect class="cls-5" x="223.43" y="197.21" width="2.49" height="2.5"/><rect class="cls-5" x="223.43" y="201.4" width="2.49" height="2.5"/><rect class="cls-5" x="223.43" y="205.59" width="2.49" height="2.5"/><rect class="cls-5" x="223.43" y="209.78" width="2.49" height="2.5"/><rect class="cls-5" x="223.43" y="213.97" width="2.49" height="2.5"/><rect class="cls-5" x="223.43" y="218.16" width="2.49" height="2.5"/><rect class="cls-5" x="223.43" y="222.35" width="2.49" height="2.5"/><rect class="cls-5" x="223.43" y="226.54" width="2.49" height="2.5"/><rect class="cls-5" x="223.43" y="230.73" width="2.49" height="2.5"/><rect class="cls-5" x="223.43" y="234.93" width="2.49" height="2.5"/><rect class="cls-5" x="223.43" y="239.12" width="2.49" height="2.5"/><rect class="cls-5" x="223.43" y="243.31" width="2.49" height="2.5"/><rect class="cls-5" x="223.43" y="247.5" width="2.49" height="2.5"/><rect class="cls-5" x="219.47" y="172.06" width="2.49" height="2.5"/><rect class="cls-5" x="219.47" y="176.25" width="2.49" height="2.5"/><rect class="cls-5" x="219.47" y="180.44" width="2.49" height="2.5"/><rect class="cls-5" x="219.47" y="184.63" width="2.49" height="2.5"/><rect class="cls-5" x="219.47" y="188.83" width="2.49" height="2.5"/><rect class="cls-5" x="219.47" y="193.02" width="2.49" height="2.5"/><rect class="cls-5" x="219.47" y="197.21" width="2.49" height="2.5"/><rect class="cls-5" x="219.47" y="201.4" width="2.49" height="2.5"/><rect class="cls-5" x="219.47" y="205.59" width="2.49" height="2.5"/><rect class="cls-5" x="219.47" y="209.78" width="2.49" height="2.5"/><rect class="cls-5" x="219.47" y="213.97" width="2.49" height="2.5"/><rect class="cls-5" x="219.47" y="218.16" width="2.49" height="2.5"/><rect class="cls-5" x="219.47" y="222.35" width="2.49" height="2.5"/><rect class="cls-5" x="219.47" y="226.54" width="2.49" height="2.5"/><rect class="cls-5" x="219.47" y="230.73" width="2.49" height="2.5"/><rect class="cls-5" x="215.51" y="172.06" width="2.49" height="2.5"/><rect class="cls-5" x="215.51" y="176.25" width="2.49" height="2.5"/><rect class="cls-5" x="215.51" y="180.44" width="2.49" height="2.5"/><rect class="cls-5" x="215.51" y="184.63" width="2.49" height="2.5"/><rect class="cls-5" x="215.51" y="188.83" width="2.49" height="2.5"/><rect class="cls-5" x="215.51" y="193.02" width="2.49" height="2.5"/><rect class="cls-5" x="215.51" y="197.21" width="2.49" height="2.5"/><rect class="cls-5" x="215.51" y="201.4" width="2.49" height="2.5"/><rect class="cls-5" x="215.51" y="205.59" width="2.49" height="2.5"/><rect class="cls-5" x="215.51" y="209.78" width="2.49" height="2.5"/><rect class="cls-5" x="215.51" y="213.97" width="2.49" height="2.5"/><rect class="cls-5" x="215.51" y="218.16" width="2.49" height="2.5"/><rect class="cls-5" x="215.51" y="222.35" width="2.49" height="2.5"/><rect class="cls-5" x="211.55" y="172.06" width="2.49" height="2.5"/><rect class="cls-5" x="211.55" y="176.25" width="2.49" height="2.5"/><rect class="cls-5" x="211.55" y="180.44" width="2.49" height="2.5"/><rect class="cls-5" x="211.55" y="184.63" width="2.49" height="2.5"/><rect class="cls-5" x="211.55" y="188.83" width="2.49" height="2.5"/><rect class="cls-5" x="211.55" y="193.02" width="2.49" height="2.5"/><rect class="cls-5" x="211.55" y="197.21" width="2.49" height="2.5"/><rect class="cls-5" x="211.55" y="201.4" width="2.49" height="2.5"/><rect class="cls-5" x="211.55" y="205.59" width="2.49" height="2.5"/><rect class="cls-5" x="211.55" y="209.78" width="2.49" height="2.5"/><rect class="cls-5" x="211.55" y="213.97" width="2.49" height="2.5"/><rect class="cls-5" x="211.55" y="218.16" width="2.49" height="2.5"/><rect class="cls-5" x="442.64" y="170.81" width="2.49" height="2.5"/><rect class="cls-5" x="442.64" y="175" width="2.49" height="2.5"/><rect class="cls-5" x="442.64" y="179.19" width="2.49" height="2.5"/><rect class="cls-5" x="442.64" y="183.38" width="2.49" height="2.5"/><rect class="cls-5" x="442.64" y="187.58" width="2.49" height="2.5"/><rect class="cls-5" x="442.64" y="191.77" width="2.49" height="2.5"/><rect class="cls-5" x="442.64" y="195.96" width="2.49" height="2.5"/><rect class="cls-5" x="442.64" y="200.15" width="2.49" height="2.5"/><rect class="cls-5" x="442.64" y="204.34" width="2.49" height="2.5"/><rect class="cls-5" x="442.64" y="208.53" width="2.49" height="2.5"/><rect class="cls-5" x="442.64" y="212.72" width="2.49" height="2.5"/><rect class="cls-5" x="442.64" y="216.91" width="2.49" height="2.5"/><rect class="cls-5" x="442.64" y="221.1" width="2.49" height="2.5"/><rect class="cls-5" x="442.64" y="225.29" width="2.49" height="2.5"/><rect class="cls-5" x="442.64" y="229.48" width="2.49" height="2.5"/><rect class="cls-5" x="442.64" y="233.68" width="2.49" height="2.5"/><rect class="cls-5" x="442.64" y="237.87" width="2.49" height="2.5"/><rect class="cls-5" x="442.64" y="246.25" width="2.49" height="2.5"/><rect class="cls-5" x="442.64" y="250.44" width="2.49" height="2.5"/><rect class="cls-5" x="442.64" y="254.63" width="2.49" height="2.5"/><rect class="cls-5" x="442.64" y="258.82" width="2.49" height="2.5"/><rect class="cls-5" x="442.64" y="263.01" width="2.49" height="2.5"/><rect class="cls-5" x="438.68" y="170.81" width="2.49" height="2.5"/><rect class="cls-5" x="438.68" y="175" width="2.49" height="2.5"/><rect class="cls-5" x="438.68" y="179.19" width="2.49" height="2.5"/><rect class="cls-5" x="438.68" y="183.38" width="2.49" height="2.5"/><rect class="cls-5" x="438.68" y="187.58" width="2.49" height="2.5"/><rect class="cls-5" x="438.68" y="191.77" width="2.49" height="2.5"/><rect class="cls-5" x="438.68" y="195.96" width="2.49" height="2.5"/><rect class="cls-5" x="438.68" y="200.15" width="2.49" height="2.5"/><rect class="cls-5" x="438.68" y="204.34" width="2.49" height="2.5"/><rect class="cls-5" x="438.68" y="208.53" width="2.49" height="2.5"/><rect class="cls-5" x="438.68" y="212.72" width="2.49" height="2.5"/><rect class="cls-5" x="438.68" y="216.91" width="2.49" height="2.5"/><rect class="cls-5" x="438.68" y="221.1" width="2.49" height="2.5"/><rect class="cls-5" x="438.68" y="225.29" width="2.49" height="2.5"/><rect class="cls-5" x="438.68" y="229.48" width="2.49" height="2.5"/><rect class="cls-5" x="438.68" y="233.68" width="2.49" height="2.5"/><rect class="cls-5" x="438.68" y="258.82" width="2.49" height="2.5"/><rect class="cls-5" x="438.68" y="263.01" width="2.49" height="2.5"/><rect class="cls-5" x="434.73" y="170.81" width="2.49" height="2.5"/><rect class="cls-5" x="434.73" y="175" width="2.49" height="2.5"/><rect class="cls-5" x="434.73" y="179.19" width="2.49" height="2.5"/><rect class="cls-5" x="434.73" y="183.38" width="2.49" height="2.5"/><rect class="cls-5" x="434.73" y="187.58" width="2.49" height="2.5"/><rect class="cls-5" x="434.73" y="191.77" width="2.49" height="2.5"/><rect class="cls-5" x="434.73" y="195.96" width="2.49" height="2.5"/><rect class="cls-5" x="434.73" y="200.15" width="2.49" height="2.5"/><rect class="cls-5" x="434.73" y="204.34" width="2.49" height="2.5"/><rect class="cls-5" x="434.73" y="208.53" width="2.49" height="2.5"/><rect class="cls-5" x="434.73" y="212.72" width="2.49" height="2.5"/><rect class="cls-5" x="434.73" y="216.91" width="2.49" height="2.5"/><rect class="cls-5" x="434.73" y="221.1" width="2.49" height="2.5"/><rect class="cls-5" x="434.73" y="225.29" width="2.49" height="2.5"/><rect class="cls-5" x="434.73" y="229.48" width="2.49" height="2.5"/><rect class="cls-5" x="434.73" y="233.68" width="2.49" height="2.5"/><rect class="cls-5" x="434.73" y="242.06" width="2.49" height="2.5"/><rect class="cls-5" x="434.73" y="246.25" width="2.49" height="2.5"/><rect class="cls-5" x="434.73" y="250.44" width="2.49" height="2.5"/><rect class="cls-5" x="434.73" y="254.63" width="2.49" height="2.5"/><rect class="cls-5" x="434.73" y="263.01" width="2.49" height="2.5"/><rect class="cls-5" x="365.66" y="200.15" width="2.49" height="2.5"/><rect class="cls-5" x="365.66" y="204.34" width="2.49" height="2.5"/><rect class="cls-5" x="365.66" y="208.53" width="2.49" height="2.5"/><rect class="cls-5" x="365.66" y="212.72" width="2.49" height="2.5"/><rect class="cls-5" x="365.66" y="216.91" width="2.49" height="2.5"/><rect class="cls-5" x="365.66" y="221.1" width="2.49" height="2.5"/><rect class="cls-5" x="365.66" y="225.29" width="2.49" height="2.5"/><rect class="cls-5" x="365.66" y="229.48" width="2.49" height="2.5"/><rect class="cls-5" x="365.66" y="233.68" width="2.49" height="2.5"/><rect class="cls-5" x="365.66" y="237.87" width="2.49" height="2.5"/><rect class="cls-5" x="365.66" y="242.06" width="2.49" height="2.5"/><rect class="cls-5" x="365.66" y="246.25" width="2.49" height="2.5"/><rect class="cls-5" x="365.66" y="250.44" width="2.49" height="2.5"/><rect class="cls-5" x="365.66" y="258.82" width="2.49" height="2.5"/><rect class="cls-5" x="365.66" y="263.01" width="2.49" height="2.5"/><rect class="cls-5" x="365.66" y="267.2" width="2.49" height="2.5"/><rect class="cls-5" x="365.66" y="271.39" width="2.49" height="2.5"/><rect class="cls-5" x="365.66" y="279.78" width="2.49" height="2.5"/><rect class="cls-5" x="365.66" y="283.97" width="2.49" height="2.5"/><rect class="cls-5" x="365.66" y="288.16" width="2.49" height="2.5"/><rect class="cls-5" x="361.7" y="200.15" width="2.49" height="2.5"/><rect class="cls-5" x="361.7" y="204.34" width="2.49" height="2.5"/><rect class="cls-5" x="361.7" y="208.53" width="2.49" height="2.5"/><rect class="cls-5" x="361.7" y="212.72" width="2.49" height="2.5"/><rect class="cls-5" x="361.7" y="216.91" width="2.49" height="2.5"/><rect class="cls-5" x="361.7" y="221.1" width="2.49" height="2.5"/><rect class="cls-5" x="361.7" y="225.29" width="2.49" height="2.5"/><rect class="cls-5" x="361.7" y="229.48" width="2.49" height="2.5"/><rect class="cls-5" x="361.7" y="233.68" width="2.49" height="2.5"/><rect class="cls-5" x="361.7" y="237.87" width="2.49" height="2.5"/><rect class="cls-5" x="361.7" y="242.06" width="2.49" height="2.5"/><rect class="cls-5" x="361.7" y="246.25" width="2.49" height="2.5"/><rect class="cls-5" x="361.7" y="250.44" width="2.49" height="2.5"/><rect class="cls-5" x="361.7" y="263.01" width="2.49" height="2.5"/><rect class="cls-5" x="361.7" y="267.2" width="2.49" height="2.5"/><rect class="cls-5" x="361.7" y="275.58" width="2.49" height="2.5"/><rect class="cls-5" x="361.7" y="279.78" width="2.49" height="2.5"/><rect class="cls-5" x="361.7" y="283.97" width="2.49" height="2.5"/><rect class="cls-5" x="361.7" y="288.16" width="2.49" height="2.5"/><rect class="cls-5" x="357.74" y="200.15" width="2.49" height="2.5"/><rect class="cls-5" x="357.74" y="204.34" width="2.49" height="2.5"/><rect class="cls-5" x="357.74" y="208.53" width="2.49" height="2.5"/><rect class="cls-5" x="357.74" y="212.72" width="2.49" height="2.5"/><rect class="cls-5" x="357.74" y="216.91" width="2.49" height="2.5"/><rect class="cls-5" x="357.74" y="221.1" width="2.49" height="2.5"/><rect class="cls-5" x="357.74" y="225.29" width="2.49" height="2.5"/><rect class="cls-5" x="357.74" y="229.48" width="2.49" height="2.5"/><rect class="cls-5" x="357.74" y="233.68" width="2.49" height="2.5"/><rect class="cls-5" x="357.74" y="237.87" width="2.49" height="2.5"/><rect class="cls-5" x="357.74" y="242.06" width="2.49" height="2.5"/><rect class="cls-5" x="357.74" y="246.25" width="2.49" height="2.5"/><rect class="cls-5" x="357.74" y="250.44" width="2.49" height="2.5"/><rect class="cls-5" x="357.74" y="254.63" width="2.49" height="2.5"/><rect class="cls-5" x="357.74" y="263.01" width="2.49" height="2.5"/><rect class="cls-5" x="357.74" y="271.39" width="2.49" height="2.5"/><rect class="cls-5" x="357.74" y="275.58" width="2.49" height="2.5"/><rect class="cls-5" x="357.74" y="279.78" width="2.49" height="2.5"/><rect class="cls-5" x="357.74" y="283.97" width="2.49" height="2.5"/><rect class="cls-5" x="357.74" y="288.16" width="2.49" height="2.5"/><rect class="cls-5" x="381.79" y="224.04" width="2.49" height="2.5"/><rect class="cls-5" x="381.79" y="228.23" width="2.49" height="2.5"/><rect class="cls-5" x="381.79" y="232.43" width="2.49" height="2.5"/><rect class="cls-5" x="381.79" y="236.62" width="2.49" height="2.5"/><rect class="cls-5" x="381.79" y="240.81" width="2.49" height="2.5"/><rect class="cls-5" x="381.79" y="245" width="2.49" height="2.5"/><rect class="cls-5" x="381.79" y="257.57" width="2.49" height="2.5"/><rect class="cls-5" x="381.79" y="261.76" width="2.49" height="2.5"/><rect class="cls-5" x="381.79" y="265.95" width="2.49" height="2.5"/><rect class="cls-5" x="381.79" y="270.14" width="2.49" height="2.5"/><rect class="cls-5" x="381.79" y="274.33" width="2.49" height="2.5"/><rect class="cls-5" x="381.79" y="278.53" width="2.49" height="2.5"/><rect class="cls-5" x="381.79" y="282.72" width="2.49" height="2.5"/><rect class="cls-5" x="377.83" y="224.04" width="2.49" height="2.5"/><rect class="cls-5" x="377.83" y="228.23" width="2.49" height="2.5"/><rect class="cls-5" x="377.83" y="232.43" width="2.49" height="2.5"/><rect class="cls-5" x="377.83" y="236.62" width="2.49" height="2.5"/><rect class="cls-5" x="377.83" y="240.81" width="2.49" height="2.5"/><rect class="cls-5" x="377.83" y="245" width="2.49" height="2.5"/><rect class="cls-5" x="377.83" y="257.57" width="2.49" height="2.5"/><rect class="cls-5" x="377.83" y="261.76" width="2.49" height="2.5"/><rect class="cls-5" x="377.83" y="265.95" width="2.49" height="2.5"/><rect class="cls-5" x="377.83" y="270.14" width="2.49" height="2.5"/><rect class="cls-5" x="377.83" y="274.33" width="2.49" height="2.5"/><rect class="cls-5" x="377.83" y="278.53" width="2.49" height="2.5"/><rect class="cls-5" x="377.83" y="286.91" width="2.49" height="2.5"/><rect class="cls-5" x="246.3" y="205.59" width="2.49" height="2.5"/><rect class="cls-5" x="246.3" y="209.78" width="2.49" height="2.5"/><rect class="cls-5" x="246.3" y="213.97" width="2.49" height="2.5"/><rect class="cls-5" x="246.3" y="218.16" width="2.49" height="2.5"/><rect class="cls-5" x="246.3" y="222.35" width="2.49" height="2.5"/><rect class="cls-5" x="246.3" y="226.54" width="2.49" height="2.5"/><rect class="cls-5" x="246.3" y="230.73" width="2.49" height="2.5"/><rect class="cls-5" x="246.3" y="234.93" width="2.49" height="2.5"/><rect class="cls-5" x="246.3" y="239.12" width="2.49" height="2.5"/><rect class="cls-5" x="246.3" y="243.31" width="2.49" height="2.5"/><rect class="cls-5" x="246.3" y="247.5" width="2.49" height="2.5"/><rect class="cls-5" x="246.3" y="255.88" width="2.49" height="2.5"/><rect class="cls-5" x="246.3" y="260.07" width="2.49" height="2.5"/><rect class="cls-5" x="246.3" y="264.26" width="2.49" height="2.5"/><rect class="cls-5" x="246.3" y="268.45" width="2.49" height="2.5"/><rect class="cls-5" x="246.3" y="272.64" width="2.49" height="2.5"/><rect class="cls-5" x="246.3" y="276.83" width="2.49" height="2.5"/><rect class="cls-5" x="246.3" y="281.03" width="2.49" height="2.5"/><rect class="cls-5" x="246.3" y="285.22" width="2.49" height="2.5"/><rect class="cls-5" x="242.35" y="205.59" width="2.49" height="2.5"/><rect class="cls-5" x="242.35" y="209.78" width="2.49" height="2.5"/><rect class="cls-5" x="242.35" y="213.97" width="2.49" height="2.5"/><rect class="cls-5" x="242.35" y="218.16" width="2.49" height="2.5"/><rect class="cls-5" x="242.35" y="222.35" width="2.49" height="2.5"/><rect class="cls-5" x="242.35" y="226.54" width="2.49" height="2.5"/><rect class="cls-5" x="242.35" y="230.73" width="2.49" height="2.5"/><rect class="cls-5" x="242.35" y="234.93" width="2.49" height="2.5"/><rect class="cls-5" x="242.35" y="239.12" width="2.49" height="2.5"/><rect class="cls-5" x="242.35" y="243.31" width="2.49" height="2.5"/><rect class="cls-5" x="242.35" y="247.5" width="2.49" height="2.5"/><rect class="cls-5" x="242.35" y="251.69" width="2.49" height="2.5"/><rect class="cls-5" x="242.35" y="255.88" width="2.49" height="2.5"/><rect class="cls-5" x="242.35" y="260.07" width="2.49" height="2.5"/><rect class="cls-5" x="242.35" y="264.26" width="2.49" height="2.5"/><rect class="cls-5" x="242.35" y="268.45" width="2.49" height="2.5"/><rect class="cls-5" x="242.35" y="272.64" width="2.49" height="2.5"/><rect class="cls-5" x="242.35" y="276.83" width="2.49" height="2.5"/><rect class="cls-5" x="242.35" y="281.03" width="2.49" height="2.5"/><rect class="cls-5" x="242.35" y="285.22" width="2.49" height="2.5"/><rect class="cls-5" x="265.81" y="221.91" width="2.49" height="2.5"/><rect class="cls-5" x="265.81" y="226.1" width="2.49" height="2.5"/><rect class="cls-5" x="265.81" y="230.29" width="2.49" height="2.5"/><rect class="cls-5" x="265.81" y="234.48" width="2.49" height="2.5"/><rect class="cls-5" x="265.81" y="238.68" width="2.49" height="2.5"/><rect class="cls-5" x="265.81" y="242.87" width="2.49" height="2.5"/><rect class="cls-5" x="265.81" y="247.06" width="2.49" height="2.5"/><rect class="cls-5" x="265.81" y="251.25" width="2.49" height="2.5"/><rect class="cls-5" x="265.81" y="255.44" width="2.49" height="2.5"/><rect class="cls-5" x="265.81" y="259.63" width="2.49" height="2.5"/><rect class="cls-5" x="261.85" y="221.91" width="2.49" height="2.5"/><rect class="cls-5" x="261.85" y="226.1" width="2.49" height="2.5"/><rect class="cls-5" x="261.85" y="230.29" width="2.49" height="2.5"/><rect class="cls-5" x="261.85" y="234.48" width="2.49" height="2.5"/><rect class="cls-5" x="261.85" y="238.68" width="2.49" height="2.5"/><rect class="cls-5" x="261.85" y="242.87" width="2.49" height="2.5"/><rect class="cls-5" x="261.85" y="247.06" width="2.49" height="2.5"/><rect class="cls-5" x="261.85" y="251.25" width="2.49" height="2.5"/><rect class="cls-5" x="261.85" y="255.44" width="2.49" height="2.5"/><rect class="cls-2" x="283.71" y="62.87" width="4.18" height="233.74"/><rect class="cls-2" x="362.42" y="62.87" width="4.18" height="233.74"/><rect class="cls-2" x="441.12" y="62.87" width="4.18" height="233.74"/><path class="cls-5" d="M147.82,273.87H173.6a4.41,4.41,0,0,1,4.41,4.41v50a0,0,0,0,1,0,0H143.42a0,0,0,0,1,0,0v-50A4.41,4.41,0,0,1,147.82,273.87Z"/><rect class="cls-4" x="143.42" y="281.23" width="34.59" height="3.9"/><path class="cls-2" d="M163.09,321.68h8.62a2.37,2.37,0,0,1,2.37,2.37v4.21a0,0,0,0,1,0,0H160.71a0,0,0,0,1,0,0V324A2.37,2.37,0,0,1,163.09,321.68Z"/><path class="cls-4" d="M174.12,384.54h-9.58A1.54,1.54,0,0,1,163,383h0a1.54,1.54,0,0,1,1.54-1.54h9.58a1.54,1.54,0,0,1,1.54,1.54h0A1.54,1.54,0,0,1,174.12,384.54Z" transform="translate(0 -56.28)"/><ellipse class="cls-2" cx="322.3" cy="28.9" rx="23.55" ry="23.62"/><ellipse class="cls-5" cx="322.3" cy="28.9" rx="20.03" ry="20.08"/><polyline class="cls-6" points="323.25 15.12 323.25 29.16 332.52 23.89"/><path class="cls-2" d="M96.93,315.7c-1.8-3-4.76-.38-4.76-.38.42-5.7-4.8-9.6-4.8-9.6s6.07,0,6.91-5.81-2.11-3.1-4.89-3.14-5.69,8.1-2,12.69,2.68,12.4-5.79,19.92a16.68,16.68,0,0,0-4.42,6.93c.64-6.92,1-16.65-1-23.16-3.44-11,3.12-14,5-19.53s-5-10.19-5-10.19,6.51-3,3.33-6.37-9.74-2.94-9.74,1.5,4.45,6.14,4.45,6.14,5.08,5.31,5.08,8.07-5.08,8.71-5.08,8.71,2.33-5.09-2.33-5.31-6.14,5.94-4.23,8.7,5.08.43,5.08.43a54.3,54.3,0,0,0,1.45,9.55c.48,1.59.26,7.82-.14,14.3A16.18,16.18,0,0,0,69.87,323c-8.47-7.52-9.45-15.34-5.78-19.92s.76-12.73-2-12.69-5.75-2.67-4.9,3.14,6.92,5.81,6.92,5.81-5.23,3.9-4.81,9.6c0,0-3-2.59-4.76.38-3.21,5.31,4.24,8.6,5.49,6,0,0,15.79,11.21,12,27.35l.88,1.31c-.11,1.3-.18,2.09-.18,2.09l1.23-.54,1.41,2.08a48.57,48.57,0,0,0,.36,7L79.46,349c-3.81-16.14,12-27.35,12-27.35C92.7,324.3,100.14,321,96.93,315.7Z" transform="translate(0 -56.28)"/><path class="cls-7" d="M96.93,315.7c-1.8-3-4.76-.38-4.76-.38.42-5.7-4.8-9.6-4.8-9.6s6.07,0,6.91-5.81-2.11-3.1-4.89-3.14-5.69,8.1-2,12.69,2.68,12.4-5.79,19.92a16.68,16.68,0,0,0-4.42,6.93c.64-6.92,1-16.65-1-23.16-3.44-11,3.12-14,5-19.53s-5-10.19-5-10.19,6.51-3,3.33-6.37-9.74-2.94-9.74,1.5,4.45,6.14,4.45,6.14,5.08,5.31,5.08,8.07-5.08,8.71-5.08,8.71,2.33-5.09-2.33-5.31-6.14,5.94-4.23,8.7,5.08.43,5.08.43a54.3,54.3,0,0,0,1.45,9.55c.48,1.59.26,7.82-.14,14.3A16.18,16.18,0,0,0,69.87,323c-8.47-7.52-9.45-15.34-5.78-19.92s.76-12.73-2-12.69-5.75-2.67-4.9,3.14,6.92,5.81,6.92,5.81-5.23,3.9-4.81,9.6c0,0-3-2.59-4.76.38-3.21,5.31,4.24,8.6,5.49,6,0,0,15.79,11.21,12,27.35l.88,1.31c-.11,1.3-.18,2.09-.18,2.09l1.23-.54,1.41,2.08a48.57,48.57,0,0,0,.36,7L79.46,349c-3.81-16.14,12-27.35,12-27.35C92.7,324.3,100.14,321,96.93,315.7Z" transform="translate(0 -56.28)"/><polygon class="cls-4" points="93.84 328.26 57.67 328.26 53.77 288.55 97.75 288.55 93.84 328.26"/><rect class="cls-5" x="51.83" y="284.16" width="47.84" height="8.76"/><ellipse id="_Path_" data-name="&lt;Path&gt;" class="cls-3" cx="250" cy="362.32" rx="193.89" ry="11.36"/><path class="cls-8" d="M410.45,387c.15-1,3.65-25.24-3.36-33.6a7.6,7.6,0,0,0-5.82-2.88c-14.16-.33-16.09,11.07-16.11,11.19l1.67.25c.06-.4,1.74-10.05,14.4-9.74a5.87,5.87,0,0,1,4.57,2.27c6.52,7.78,3,32,3,32.26Z" transform="translate(0 -56.28)"/><path class="cls-8" d="M411.3,385.88l1.69-.05c0-.23-.56-22.32,10.29-26.88,10.64-4.47,15.43,4.72,15.62,5.11l1.51-.76c-.05-.11-5.67-11-17.78-5.91C410.71,362.4,411.27,384.92,411.3,385.88Z" transform="translate(0 -56.28)"/><path class="cls-8" d="M411.25,387.61c0-.35.11-35.29,6.9-45.51,6.52-9.81,17-5.19,17.49-5l.69-1.55c-.12-.05-12.26-5.43-19.59,5.6-7.07,10.64-7.17,45-7.17,46.44Z" transform="translate(0 -56.28)"/><path class="cls-8" d="M399.24,351.34s6.18,2.29,4.34,7.68-21.37,14.27-21.37,14.27-8.19-7.52-.67-19.76S399.07,347.48,399.24,351.34Z" transform="translate(0 -56.28)"/><path class="cls-8" d="M418.45,340.27s-4.38-.48-4-3.16,17.06-9.57,26.91,1.58c0,0-6.31,10.87-15.43,11S418.45,340.27,418.45,340.27Z" transform="translate(0 -56.28)"/><path class="cls-8" d="M423,358.17s-3-2.45.24-3.65,19.3-.86,19.47,15.07c0,0-18.68,3.11-21-2.95S423,358.17,423,358.17Z" transform="translate(0 -56.28)"/><path class="cls-9" d="M399.24,351.34s6.18,2.29,4.34,7.68-21.37,14.27-21.37,14.27-8.19-7.52-.67-19.76S399.07,347.48,399.24,351.34Z" transform="translate(0 -56.28)"/><path class="cls-9" d="M418.45,340.27s-4.38-.48-4-3.16,17.06-9.57,26.91,1.58c0,0-6.31,10.87-15.43,11S418.45,340.27,418.45,340.27Z" transform="translate(0 -56.28)"/><path class="cls-9" d="M423,358.17s-3-2.45.24-3.65,19.3-.86,19.47,15.07c0,0-18.68,3.11-21-2.95S423,358.17,423,358.17Z" transform="translate(0 -56.28)"/><polygon class="cls-8" points="395.92 363.15 424.9 363.15 428.02 331.34 392.8 331.34 395.92 363.15"/><polygon class="cls-10" points="395.92 363.15 424.9 363.15 428.02 331.34 392.8 331.34 395.92 363.15"/><rect class="cls-8" x="391.25" y="384.1" width="38.32" height="7.02" transform="translate(820.82 718.95) rotate(180)"/><rect class="cls-11" x="391.25" y="384.1" width="38.32" height="7.02" transform="translate(820.82 718.95) rotate(180)"/><path class="cls-12" d="M363.12,396.62l-28.81-2.84v-40.6H322.89v40.59L294,396.62a5.63,5.63,0,0,0-5.06,5.6v4.34h79.28v-4.34A5.62,5.62,0,0,0,363.12,396.62Z" transform="translate(0 -56.28)"/><path class="cls-11" d="M363.12,396.62l-28.81-2.84v-40.6H322.89v40.59L294,396.62a5.63,5.63,0,0,0-5.06,5.6v4.34h79.28v-4.34A5.62,5.62,0,0,0,363.12,396.62Z" transform="translate(0 -56.28)"/><ellipse class="cls-12" cx="291.95" cy="355.67" rx="7.47" ry="7.49"/><ellipse class="cls-12" cx="365.14" cy="355.67" rx="7.47" ry="7.49"/><path class="cls-12" d="M320.93,269.46h15.35a0,0,0,0,1,0,0v32a4.13,4.13,0,0,1-4.13,4.13h-7.09a4.13,4.13,0,0,1-4.13-4.13v-32A0,0,0,0,1,320.93,269.46Z"/><path class="cls-13" d="M320.93,269.46h15.35a0,0,0,0,1,0,0v32a4.13,4.13,0,0,1-4.13,4.13h-7.09a4.13,4.13,0,0,1-4.13-4.13v-32A0,0,0,0,1,320.93,269.46Z"/><path class="cls-12" d="M355.9,262.26s2.18,54.15-12.86,63.47h17.17s13.3-18.44,9.54-63.47Z" transform="translate(0 -56.28)"/><path class="cls-13" d="M355.9,262.26s2.18,54.15-12.86,63.47h17.17s13.3-18.44,9.54-63.47Z" transform="translate(0 -56.28)"/><path class="cls-12" d="M289.13,318.16h76.92a0,0,0,0,1,0,0v6.72a5,5,0,0,1-5,5H294.13a5,5,0,0,1-5-5v-6.72A0,0,0,0,1,289.13,318.16Z" transform="translate(655.18 591.77) rotate(180)"/><rect class="cls-12" x="285.93" y="324.02" width="83.33" height="5.86" rx="2.01" transform="translate(655.18 597.63) rotate(180)"/><rect class="cls-14" x="285.93" y="324.02" width="83.33" height="5.86" rx="2.01" transform="translate(655.18 597.63) rotate(180)"/><rect class="cls-12" x="331.88" y="176.95" width="56.66" height="40.03" rx="14.58"/><path class="cls-15" d="M263.05,189l-5.49-14.51s2.36-2.19.74-4.4-11.74-8.45-13.58-7.36-5.95,5.23-3.73,7.52,12,6.12,12,6.12l4.86,19Z" transform="translate(0 -56.28)"/><path class="cls-8" d="M301.38,216.57s-25-5.15-27.67-6.38S261,179.44,261,179.44l-7.71,3.61s6.2,29.63,12.54,36.67,33.4,13,33.4,13Z" transform="translate(0 -56.28)"/><path class="cls-9" d="M299.17,232.72l-.46-.1c-1.36-.31-5.63-1.32-10.7-2.81-8.23-2.4-18.61-6.06-22.23-10.08-6.33-7-12.54-36.68-12.54-36.68l7.7-3.61S271,209,273.71,210.2s27.67,6.37,27.67,6.37Z" transform="translate(0 -56.28)"/><polygon class="cls-8" points="261.07 122.59 262.66 125.67 252.76 129.09 253.14 125.32 261.07 122.59"/><path class="cls-9" d="M299.36,232.32c-1.38-.2-5.71-.88-10.89-2,2.95-5.11,11.59-7.74,11.59-7.74Z" transform="translate(0 -56.28)"/><path class="cls-12" d="M336.58,196.14s1.47,13.86-3.65,17.27-30.33-.58-33.19-6.16,7.9-20.73,7.9-20.73Z" transform="translate(0 -56.28)"/><polygon class="cls-15" points="234.59 322.36 241.17 323.95 244.5 314.85 247.52 306.57 240.03 303.36 237.15 313.41 234.59 322.36"/><polygon class="cls-9" points="237.15 313.41 244.5 314.85 247.52 306.57 240.03 303.36 237.15 313.41"/><path class="cls-8" d="M237.81,364.88l9.12,3.4s24.33-61,29.33-61.21,55.91,23.25,68.67,10.23-5.69-44.36-5.69-44.36-30.69-4.39-33,2.56a48.81,48.81,0,0,0-1.3,6.23c-.35,2.13-.59,3.91-.59,3.91h0c-.95-.24-31.76-8.21-43.9,0C248.1,294,237.81,364.88,237.81,364.88Z" transform="translate(0 -56.28)"/><path class="cls-14" d="M237.81,364.88l9.12,3.4s24.33-61,29.33-61.21,55.91,23.25,68.67,10.23-5.69-44.36-5.69-44.36-30.69-4.39-33,2.56a48.81,48.81,0,0,0-1.3,6.23c-.35,2.13-.59,3.91-.59,3.91h0c-.95-.24-31.76-8.21-43.9,0C248.1,294,237.81,364.88,237.81,364.88Z" transform="translate(0 -56.28)"/><polygon class="cls-15" points="290.27 348.38 296.82 346.7 295.56 337.27 294.39 328.63 286.29 329.36 288.39 339.43 290.27 348.38"/><polygon class="cls-9" points="288.44 339.63 295.6 337.45 294.41 328.72 286.3 329.4 288.44 339.63"/><polygon class="cls-8" points="250.7 308.62 237.41 304.09 236.84 309.55 246.92 313.12 250.7 308.62"/><path class="cls-8" d="M322.89,320.43s-2.08.05-34.27-1.45c0,0,4.81,40.36,7.44,70.57l-9.63,1.65s-23-64.7-22.75-75,12-13.29,12-13.29S298.61,316.22,322.89,320.43Z" transform="translate(0 -56.28)"/><path class="cls-14" d="M322.89,320.43s-2.08.05-34.27-1.45c0,0,4.81,40.36,7.44,70.57l-9.63,1.65s-23-64.7-22.75-75,12-13.29,12-13.29S298.61,316.22,322.89,320.43Z" transform="translate(0 -56.28)"/><path class="cls-16" d="M322.89,320.43s-2.08.05-34.27-1.45c0,0,4.81,40.36,7.44,70.57l-9.63,1.65s-23-64.7-22.75-75,12-13.29,12-13.29S298.61,316.22,322.89,320.43Z" transform="translate(0 -56.28)"/><polygon class="cls-8" points="297.46 330.35 284.23 331.86 286.79 337.06 297.5 335.68 297.46 330.35"/><path class="cls-16" d="M304.35,285.64l17.95,3.76s-9.92-5.5-17.36-7.67C304.59,283.86,304.35,285.64,304.35,285.64Z" transform="translate(0 -56.28)"/><polygon class="cls-12" points="338.5 211.88 339.24 216.67 306.24 219.22 305.37 213.56 338.5 211.88"/><polygon class="cls-9" points="338.5 211.88 339.24 216.67 306.24 219.22 305.37 213.56 338.5 211.88"/><rect class="cls-8" x="327.66" y="267.73" width="1.64" height="8.37" transform="translate(-26.15 -21.15) rotate(-5.89)"/><rect class="cls-17" x="313.25" y="269.59" width="7.24" height="5.51" transform="translate(-16.86 -35.33) rotate(-3.69)"/><rect class="cls-8" x="307.4" y="268.63" width="1.64" height="8.37" transform="translate(-26.37 -23.2) rotate(-5.89)"/><rect class="cls-14" x="327.66" y="267.73" width="1.64" height="8.37" transform="translate(-26.15 -21.15) rotate(-5.89)"/><rect class="cls-14" x="307.4" y="268.63" width="1.64" height="8.37" transform="translate(-26.37 -23.2) rotate(-5.89)"/><path class="cls-8" d="M300.78,216.11a60,60,0,0,0,19,2.11c10.58-.55,23.24,4.61,23.24,4.61l-4.54,45.32-33.14,1.68S294.23,232,300.78,216.11Z" transform="translate(0 -56.28)"/><path class="cls-12" d="M306.11,190.52s1.86-22,20.2-14c23,10,4.72,36.84-6.53,31.34S306.11,190.52,306.11,190.52Z" transform="translate(0 -56.28)"/><path class="cls-9" d="M311.25,219.45l.53,12.43,4.11-5.85s-1.47,13.76-.61,21.25c0,0,.79-13.43,2.65-21.25l4.37,5.85,6.27-12.36S318.42,215.87,311.25,219.45Z" transform="translate(0 -56.28)"/><path class="cls-15" d="M316.93,221.76l9.49-2.69c-5.85-4-2.9-13-2.9-13l-9.4,3.31a27.76,27.76,0,0,1,1,4c1,5.88-1.66,6.35-1.66,6.35Z" transform="translate(0 -56.28)"/><path class="cls-9" d="M314.12,209.33a27.76,27.76,0,0,1,1,4c4.5-1.81,8.39-7.34,8.39-7.34Z" transform="translate(0 -56.28)"/><path class="cls-15" d="M320.26,181.13c-8.33-1.85-12,2-14.5,10.49-3.13,10.58-2.44,18.75,8.47,18.76C329.05,210.4,334.08,184.2,320.26,181.13Z" transform="translate(0 -56.28)"/><path class="cls-18" d="M311.24,192.35a18,18,0,0,1-3.18,2.92,2.32,2.32,0,0,0,2,1.43Z" transform="translate(0 -56.28)"/><path class="cls-12" d="M316.49,192.8c-.17.68.06,1.32.52,1.43s.95-.35,1.12-1-.06-1.32-.52-1.44S316.66,192.11,316.49,192.8Z" transform="translate(0 -56.28)"/><path class="cls-12" d="M317.79,191.84l-1.33-.94S316.89,192.33,317.79,191.84Z" transform="translate(0 -56.28)"/><path class="cls-12" d="M308.07,190.57c-.17.68.06,1.32.52,1.44s1-.35,1.12-1-.06-1.32-.52-1.43S308.24,189.89,308.07,190.57Z" transform="translate(0 -56.28)"/><path class="cls-12" d="M309.37,189.62l-1.33-1S308.47,190.1,309.37,189.62Z" transform="translate(0 -56.28)"/><path class="cls-19" d="M317.84,187.05a4.48,4.48,0,0,1,3.34,2.06" transform="translate(0 -56.28)"/><path class="cls-19" d="M311.87,185.36a3.94,3.94,0,0,0-3.47-.05" transform="translate(0 -56.28)"/><path class="cls-12" d="M326.25,197.21s-2.38-7.72-.62-12.88c0,0-15-10.42-19.52,6.19,0,0,1.67-15.27,16.06-12.42s9.68,23.82.91,28.43C323.08,206.53,327.71,202,326.25,197.21Z" transform="translate(0 -56.28)"/><path class="cls-15" d="M324.5,198.67a3.74,3.74,0,0,1,4.67-2.47c2.52.86,2.57,6.44-4.12,6.29C324.08,202.47,323.76,201.45,324.5,198.67Z" transform="translate(0 -56.28)"/><path class="cls-12" d="M308.55,199.87A21.54,21.54,0,0,1,309,203l.54.05c2.49.21,3.71-.52,4.31-1.38a3.2,3.2,0,0,0,.52-1.44,3,3,0,0,0,0-.87,11.68,11.68,0,0,1-5,.59C308.88,199.91,308.55,199.87,308.55,199.87Z" transform="translate(0 -56.28)"/><path class="cls-17" d="M309.4,199.93l.15.92c2.34.19,4,0,4.81-.64a3,3,0,0,0,0-.87A11.68,11.68,0,0,1,309.4,199.93Z" transform="translate(0 -56.28)"/><path class="cls-18" d="M309.53,203c2.49.21,3.71-.52,4.31-1.38a7.83,7.83,0,0,0-2.8.31A3,3,0,0,0,309.53,203Z" transform="translate(0 -56.28)"/><path class="cls-12" d="M320.29,181.8s.32,14.47,9,16.21-.8-18.6-.8-18.6-12.9-8.45-21.5-2.5-.86,13.61-.86,13.61S307.92,179.77,320.29,181.8Z" transform="translate(0 -56.28)"/><path class="cls-20" d="M320.59,180.84s-3.09,9.15,3,14" transform="translate(0 -56.28)"/><path class="cls-8" d="M331.8,201c-1.1,2.94-3.93,4.6-6.32,3.7s-3.43-4-2.33-7,3.93-4.6,6.32-3.7S332.9,198.05,331.8,201Z" transform="translate(0 -56.28)"/><path class="cls-21" d="M331.8,201c-1.1,2.94-3.93,4.6-6.32,3.7s-3.43-4-2.33-7,3.93-4.6,6.32-3.7S332.9,198.05,331.8,201Z" transform="translate(0 -56.28)"/><path class="cls-8" d="M329,196.16s3.59-16.11-4.46-20.34a24.53,24.53,0,0,1,2.72.53c1,.31,7.47,6.84,4.22,21.33Z" transform="translate(0 -56.28)"/><path class="cls-9" d="M329,196.16s3.59-16.11-4.46-20.34a24.53,24.53,0,0,1,2.72.53c1,.31,7.47,6.84,4.22,21.33Z" transform="translate(0 -56.28)"/><path class="cls-8" d="M314,205.39l-.6-.09.16-1a18.29,18.29,0,0,0,12.69-2.71l.59.81A18.83,18.83,0,0,1,314,205.39Z" transform="translate(0 -56.28)"/><g class="cls-22"><path d="M314,205.39l-.6-.09.16-1a18.29,18.29,0,0,0,12.69-2.71l.59.81A18.83,18.83,0,0,1,314,205.39Z" transform="translate(0 -56.28)"/></g><path class="cls-8" d="M331.46,200.59c-.72,1.94-2.6,3-4.17,2.45s-2.27-2.66-1.54-4.61,2.6-3,4.17-2.44S332.19,198.64,331.46,200.59Z" transform="translate(0 -56.28)"/><path class="cls-8" d="M313.06,205.71l-.81-.1a1.09,1.09,0,0,1-.93-1.23h0a1.08,1.08,0,0,1,1.22-.93l.8.1a1.11,1.11,0,0,1,.94,1.23h0A1.09,1.09,0,0,1,313.06,205.71Z" transform="translate(0 -56.28)"/><path class="cls-21" d="M313.06,205.71l-.81-.1a1.09,1.09,0,0,1-.93-1.23h0a1.08,1.08,0,0,1,1.22-.93l.8.1a1.11,1.11,0,0,1,.94,1.23h0A1.09,1.09,0,0,1,313.06,205.71Z" transform="translate(0 -56.28)"/><polygon class="cls-8" points="323.87 159.35 317.93 165.2 320.31 172.37 328.57 163.25 323.87 159.35"/><polygon class="cls-8" points="315.28 160.57 316.24 165.08 313.17 171.45 311.25 163.17 315.28 160.57"/><path class="cls-15" d="M322.6,220.71,326.05,208s-1.67-3.16-1.31-3.82,2.16-9.16,3.44-10.09,6.55.66,7.08,1.52S330.21,208,330.21,208l-2,13.72Z" transform="translate(0 -56.28)"/><path class="cls-8" d="M343,222.83c9.5,9.75-9.53,31.83-20.44,30.89s.28-41,.28-41l7,1.15s-2.45,17.33-1.68,18.69S339.85,219.55,343,222.83Z" transform="translate(0 -56.28)"/><path class="cls-9" d="M343,222.83c9.5,9.75-9.53,31.83-20.44,30.89s.28-41,.28-41l7,1.15s-2.45,17.33-1.68,18.69S339.85,219.55,343,222.83Z" transform="translate(0 -56.28)"/><polygon class="cls-8" points="322.3 155.18 321.27 158.49 331 159.35 331 156.46 322.3 155.18"/><rect class="cls-14" x="302.82" y="181.37" width="5.52" height="9.05" rx="0.79"/><rect class="cls-9" x="303.15" y="181.96" width="4.48" height="6.15"/><rect class="cls-12" x="305" y="179.18" width="0.99" height="3.62"/><path class="cls-8" d="M223.71,391.45a8.68,8.68,0,0,1,3.17-.81h0s3.8-2.24,7.56-10.95l4.23,0a3.5,3.5,0,0,1,3.26,2.34,1.94,1.94,0,0,1,.12.59,26.08,26.08,0,0,1-.33,3.05,84.79,84.79,0,0,1-2.47,10l-.72-.18,1.3-6.34c.44-2.15-1.82-.07-2.86,2.1s-2.65,4.36-7.33,3.28C224.19,393.22,222,392.43,223.71,391.45Z" transform="translate(0 -56.28)"/><path class="cls-15" d="M235.21,377.4s-5.29,11.1-8.33,13.24c0,0,4.08,2.44,8.33-3,5.49-7,6.84-5.06,6.84-5.06a20,20,0,0,0-.67-3.58C240.56,376.74,235.21,377.4,235.21,377.4Z" transform="translate(0 -56.28)"/><path class="cls-8" d="M281.93,417.87a9.25,9.25,0,0,1,2.89-1.54h0s3.16-3.08,4.75-12.43l4.11-1a3.47,3.47,0,0,1,3.71,1.49,2.24,2.24,0,0,1,.26.54,24.28,24.28,0,0,1,.41,3.05,84.55,84.55,0,0,1-.05,10.29h-.74l-.23-6.47c-.09-2.19-1.78.37-2.29,2.72s-1.54,4.86-6.34,4.93C282.82,419.48,280.5,419.24,281.93,417.87Z" transform="translate(0 -56.28)"/><path class="cls-15" d="M289.78,401.5s-2.51,12-5,14.83c0,0,4.54,1.4,7.38-4.88,3.68-8.13,5.45-6.55,5.45-6.55a20.32,20.32,0,0,0-1.49-3.32C294.82,399.58,289.78,401.5,289.78,401.5Z" transform="translate(0 -56.28)"/><rect class="cls-8" x="342.78" y="102.49" width="45.05" height="25.14" rx="5.07"/><polygon class="cls-8" points="354.85 124.76 344.33 139.1 361.3 125.72 354.85 124.76"/><path class="cls-17" d="M355.24,171.33a1.48,1.48,0,1,1-1.47-1.48A1.47,1.47,0,0,1,355.24,171.33Z" transform="translate(0 -56.28)"/><path class="cls-17" d="M362.93,171.33a1.48,1.48,0,1,1-1.47-1.48A1.47,1.47,0,0,1,362.93,171.33Z" transform="translate(0 -56.28)"/><path class="cls-17" d="M370.62,171.33a1.48,1.48,0,1,1-1.47-1.48A1.47,1.47,0,0,1,370.62,171.33Z" transform="translate(0 -56.28)"/><path class="cls-17" d="M378.31,171.33a1.48,1.48,0,1,1-1.47-1.48A1.47,1.47,0,0,1,378.31,171.33Z" transform="translate(0 -56.28)"/><path class="cls-8" d="M242.39,164.11l-24.81-13.4a1.45,1.45,0,0,1-.59-2l7.9-14.7a1.42,1.42,0,0,1,1.94-.58l24.81,13.4a1.44,1.44,0,0,1,.58,2l-7.89,14.7A1.43,1.43,0,0,1,242.39,164.11Z" transform="translate(0 -56.28)"/><path class="cls-23" d="M242.39,164.11l-24.81-13.4a1.45,1.45,0,0,1-.59-2l7.9-14.7a1.42,1.42,0,0,1,1.94-.58l24.81,13.4a1.44,1.44,0,0,1,.58,2l-7.89,14.7A1.43,1.43,0,0,1,242.39,164.11Z" transform="translate(0 -56.28)"/><path class="cls-9" d="M224.25,135.24,232,149.83a3.21,3.21,0,0,0,3.12,1.67l16.21-1.61-16.5,2.44a3.4,3.4,0,0,1-3.56-1.93Z" transform="translate(0 -56.28)"/><path class="cls-8" d="M205.34,132.52c.27-5.58,4.39-16.82,9.4-20.26s1.71,1.33,1.71,1.33,4.75-4.63,7.25-4.5,0,3,0,3,5.15-3.18,7.52-3,0,2.91,0,2.91,4.22-3,5.93-1.59-21.89,17.06-24.52,23.41S205.07,138.17,205.34,132.52Z" transform="translate(0 -56.28)"/><path class="cls-24" d="M205.34,132.52c.27-5.58,4.39-16.82,9.4-20.26s1.71,1.33,1.71,1.33,4.75-4.63,7.25-4.5,0,3,0,3,5.15-3.18,7.52-3,0,2.91,0,2.91,4.22-3,5.93-1.59-21.89,17.06-24.52,23.41S205.07,138.17,205.34,132.52Z" transform="translate(0 -56.28)"/><path class="cls-8" d="M225.62,131.7l3.15,2a.26.26,0,0,1-.16.48l-3.31-.26.28,2.55a.28.28,0,0,1-.49.22l-1.91-2.17Z" transform="translate(0 -56.28)"/><path class="cls-13" d="M225.62,131.7l3.15,2a.26.26,0,0,1-.16.48l-3.31-.26.28,2.55a.28.28,0,0,1-.49.22l-1.91-2.17Z" transform="translate(0 -56.28)"/><path class="cls-8" d="M181.37,119.14s4.36-3,10.95-1.06c0,0,1.89,8.73,7.08,11.64,2.85,1.6,9.82,1.46,15.34-.33,6.55-2.13,9.75-2.13,10.94.33s-.13,5-5.14,6.21-9,9.92-18.07,10.06-13.89-9-11.6-17.06A24.19,24.19,0,0,0,181.37,119.14Z" transform="translate(0 -56.28)"/><path class="cls-10" d="M181.37,119.14s4.36-3,10.95-1.06c0,0,1.89,8.73,7.08,11.64,2.85,1.6,9.82,1.46,15.34-.33,6.55-2.13,9.75-2.13,10.94.33s-.13,5-5.14,6.21-9,9.92-18.07,10.06-13.89-9-11.6-17.06A24.19,24.19,0,0,0,181.37,119.14Z" transform="translate(0 -56.28)"/><path class="cls-12" d="M223.18,131.37a.45.45,0,1,1-.45-.44A.45.45,0,0,1,223.18,131.37Z" transform="translate(0 -56.28)"/><path class="cls-8" d="M200.36,138.72c-5.37,1.47-17.31,1-22.11-2.71s.72-2,.72-2-5.85-3.1-6.5-5.53,2.88-.94,2.88-.94-4.6-3.93-5.2-6.23,2.76-.9,2.76-.9-4.19-3.09-3.34-5.17,22.94,15.61,29.77,16.17S205.8,137.23,200.36,138.72Z" transform="translate(0 -56.28)"/><path class="cls-24" d="M200.36,138.72c-5.37,1.47-17.31,1-22.11-2.71s.72-2,.72-2-5.85-3.1-6.5-5.53,2.88-.94,2.88-.94-4.6-3.93-5.2-6.23,2.76-.9,2.76-.9-4.19-3.09-3.34-5.17,22.94,15.61,29.77,16.17S205.8,137.23,200.36,138.72Z" transform="translate(0 -56.28)"/><path class="cls-25" d="M165.16,114c-.94-.34-1.89-.65-2.85-.94" transform="translate(0 -56.28)"/><path class="cls-26" d="M156.46,111.51a77.84,77.84,0,0,0-10.6-1.46c-9.72-.68-25-1.64-30.92,8.07-5.43,8.86,3.91,24,7.22,32.18,4.06,10.07,8.89,22.52,4.09,33.18-9.85,21.9-52,10.52-66.28-9.65" transform="translate(0 -56.28)"/><path class="cls-25" d="M58.35,171.28A26.69,26.69,0,0,1,57,168.6" transform="translate(0 -56.28)"/><rect class="cls-17" x="141.85" y="194.64" width="37.96" height="7.81"/><rect class="cls-16" x="141.85" y="194.64" width="37.96" height="7.81"/><rect class="cls-16" x="141.85" y="194.64" width="15.99" height="7.81"/><polygon class="cls-16" points="141.85 195.77 175.64 195.77 141.85 196.73 141.85 195.77"/><polygon class="cls-16" points="179.81 197.12 150.52 197.85 179.81 197.85 179.81 197.12"/><polygon class="cls-16" points="143.4 199.31 157.84 198.71 179.07 199.31 157.84 199.64 143.4 199.31"/><polygon class="cls-16" points="141.85 200.96 166.87 200.96 141.85 201.55 141.85 200.96"/><polygon class="cls-16" points="179.75 201.55 163.04 201.87 179.81 201.87 179.75 201.55"/><rect class="cls-17" x="136.57" y="186.84" width="37.96" height="7.81"/><rect class="cls-16" x="136.57" y="186.84" width="37.96" height="7.81"/><rect class="cls-16" x="136.57" y="186.84" width="15.99" height="7.81"/><polygon class="cls-16" points="136.57 187.96 170.36 187.96 136.57 188.92 136.57 187.96"/><polygon class="cls-16" points="174.53 189.32 145.24 190.04 174.53 190.04 174.53 189.32"/><polygon class="cls-16" points="138.11 191.5 152.55 190.9 173.78 191.5 152.55 191.83 138.11 191.5"/><polygon class="cls-16" points="136.57 193.15 161.59 193.15 136.57 193.75 136.57 193.15"/><polygon class="cls-16" points="174.47 193.75 157.76 194.06 174.53 194.06 174.47 193.75"/><rect class="cls-17" x="140.9" y="179.03" width="37.96" height="7.81"/><rect class="cls-16" x="140.9" y="179.03" width="37.96" height="7.81"/><rect class="cls-16" x="140.9" y="179.03" width="15.99" height="7.81"/><polygon class="cls-16" points="140.9 180.15 174.69 180.15 140.9 181.11 140.9 180.15"/><polygon class="cls-16" points="178.86 181.51 149.57 182.24 178.86 182.24 178.86 181.51"/><polygon class="cls-16" points="142.45 183.69 156.89 183.1 178.12 183.69 156.89 184.02 142.45 183.69"/><polygon class="cls-16" points="140.9 185.34 165.92 185.34 140.9 185.94 140.9 185.34"/><polygon class="cls-16" points="178.81 185.94 162.1 186.25 178.86 186.25 178.81 185.94"/><polygon class="cls-12" points="204.15 202.29 205.13 198.55 245.69 198.55 264.36 200.42 265.07 202.29 204.15 202.29"/><polygon class="cls-21" points="245.69 198.55 245.69 202.29 204.15 202.29 205.13 198.55 245.69 198.55"/><path class="cls-12" d="M237.54,236.92a3.2,3.2,0,0,1-3.22,3.58H172.2a4,4,0,0,1-3.89-3.58L164.62,197a3.41,3.41,0,0,1,.08-1.16,3.18,3.18,0,0,1,3.14-2.42H230a4,4,0,0,1,3.89,3.58Z" transform="translate(0 -56.28)"/><path class="cls-21" d="M234.1,240.5H172.2a4,4,0,0,1-3.89-3.58L164.62,197a3.41,3.41,0,0,1,.08-1.16h61.9a4,4,0,0,1,3.89,3.58l3.69,39.88A3.45,3.45,0,0,1,234.1,240.5Z" transform="translate(0 -56.28)"/><polygon class="cls-12" points="191.42 159.76 204.27 159.76 200.85 196.66 221.17 199.72 221.17 202.29 178.37 202.29 178.37 199.72 187.14 196.66 191.42 159.76"/><polygon class="cls-27" points="204.27 159.76 194.75 201.7 187.14 201.47 191.42 159.76 204.27 159.76"/><polygon class="cls-12" points="204.21 363.15 198.09 363.15 187.08 209.47 195.21 209.47 204.21 363.15"/><polygon class="cls-24" points="204.22 363.15 198.09 363.15 187.62 217.1 187.08 209.72 195.21 209.72 195.65 217.1 204.22 363.15"/><polygon class="cls-9" points="195.65 216.74 187.62 216.74 187.08 209.72 195.21 209.72 195.65 216.74"/><polygon class="cls-12" points="249.17 363.15 243.05 363.15 242.05 209.47 250.17 209.47 249.17 363.15"/><polygon class="cls-10" points="250.18 209.72 250.02 234.51 249.18 363.15 243.05 363.15 242.21 234.51 242.05 209.72 250.18 209.72"/><polygon class="cls-9" points="250.18 209.72 250.02 234.79 242.21 234.79 242.05 209.72 250.18 209.72"/><polygon class="cls-12" points="314.21 363.15 308.09 363.15 297.08 209.47 305.21 209.47 314.21 363.15"/><polygon class="cls-10" points="314.22 363.15 308.09 363.15 297.62 217.1 297.08 209.72 305.21 209.72 305.65 217.1 314.22 363.15"/><polygon class="cls-9" points="305.65 216.74 297.62 216.74 297.08 209.72 305.21 209.72 305.65 216.74"/><polygon class="cls-12" points="134.13 363.15 128 363.15 137.01 209.47 145.14 209.47 134.13 363.15"/><polygon class="cls-10" points="145.14 209.72 144.6 217.1 134.13 363.15 128.01 363.15 136.57 217.1 137.01 209.72 145.14 209.72"/><polygon class="cls-9" points="137.01 209.72 145.14 209.72 144.6 216.74 136.57 216.74 137.01 209.72"/><path class="cls-8" d="M130.57,205.62H311.65a0,0,0,0,1,0,0v5.54a2.16,2.16,0,0,1-2.16,2.16H132.73a2.16,2.16,0,0,1-2.16-2.16v-5.54a0,0,0,0,1,0,0Z"/><path class="cls-14" d="M130.57,205.62H311.65a0,0,0,0,1,0,0v5.54a2.16,2.16,0,0,1-2.16,2.16H132.73a2.16,2.16,0,0,1-2.16-2.16v-5.54a0,0,0,0,1,0,0Z"/><rect class="cls-9" x="130.57" y="205.62" width="181.08" height="3.85"/><path class="cls-8" d="M315.45,262.9H126.77a2.17,2.17,0,0,1-2.16-2.17h0a2.17,2.17,0,0,1,2.16-2.17H315.45a2.17,2.17,0,0,1,2.16,2.17h0A2.17,2.17,0,0,1,315.45,262.9Z" transform="translate(0 -56.28)"/><path class="cls-14" d="M315.45,262.9H126.77a2.17,2.17,0,0,1-2.16-2.17h0a2.17,2.17,0,0,1,2.16-2.17H315.45a2.17,2.17,0,0,1,2.16,2.17h0A2.17,2.17,0,0,1,315.45,262.9Z" transform="translate(0 -56.28)"/><path class="cls-8" d="M270.81,251.88l2.32-3.48a2.48,2.48,0,0,1,2.08-1.12h2.94a2.46,2.46,0,0,1,.72.11l10.49,3.19a2.47,2.47,0,0,1,1.42,1.11l1.51,2.54Z" transform="translate(0 -56.28)"/><path class="cls-9" d="M292.29,254.23,277,252.57l-6.21-.69,2.32-3.49a2.5,2.5,0,0,1,2.08-1.11h2.94a2.58,2.58,0,0,1,.73.11l.23.07,10.25,3.12a2.48,2.48,0,0,1,1.43,1.11Z" transform="translate(0 -56.28)"/><path class="cls-9" d="M292.29,254.23,277,252.57l2.09-5.11,10.25,3.12a2.48,2.48,0,0,1,1.43,1.11Z" transform="translate(0 -56.28)"/><path class="cls-8" d="M299.55,258.23v.33H267.13l1.2-4.7a4,4,0,0,1,3.89-3H286.6a3.94,3.94,0,0,1,1.4.25l1.8.67,7.14,2.67A4,4,0,0,1,299.55,258.23Z" transform="translate(0 -56.28)"/><path class="cls-9" d="M299.55,258.23v.33H286.24l.71-5.08a2.13,2.13,0,0,1,2.85-1.7l7.14,2.67A4,4,0,0,1,299.55,258.23Z" transform="translate(0 -56.28)"/><path class="cls-12" d="M288.31,255.11l4.24-12.75a.94.94,0,0,1,1.32-.54h0a1,1,0,0,1,.48,1.08l-3.57,13.61S288.41,257.47,288.31,255.11Z" transform="translate(0 -56.28)"/><polygon class="cls-9" points="270.81 201.23 268.93 201.23 269.29 199.38 271.17 199.38 270.81 201.23"/><polygon class="cls-9" points="273.61 201.16 271.73 201.16 272.09 199.31 273.97 199.31 273.61 201.16"/></svg>